<svg width="35" height="35" viewBox="0 0 35 35" fill="none" xmlns="http://www.w3.org/2000/svg">
<path d="M15.5263 28.0263C15.5263 28.5498 15.7343 29.0518 16.1044 29.4219C16.4745 29.7921 16.9765 30 17.5 30C18.0235 30 18.5255 29.7921 18.8956 29.4219C19.2657 29.0518 19.4737 28.5498 19.4737 28.0263V19.4737H28.0263C28.5498 19.4737 29.0518 19.2657 29.4219 18.8956C29.7921 18.5255 30 18.0235 30 17.5C30 16.9765 29.7921 16.4745 29.4219 16.1044C29.0518 15.7343 28.5498 15.5263 28.0263 15.5263H19.4737V6.97368C19.4737 6.45023 19.2657 5.94822 18.8956 5.57808C18.5255 5.20794 18.0235 5 17.5 5C16.9765 5 16.4745 5.20794 16.1044 5.57808C15.7343 5.94822 15.5263 6.45023 15.5263 6.97368V15.5263H6.97368C6.45023 15.5263 5.94822 15.7343 5.57808 16.1044C5.20794 16.4745 5 16.9765 5 17.5C5 18.0235 5.20794 18.5255 5.57808 18.8956C5.94822 19.2657 6.45023 19.4737 6.97368 19.4737H15.5263V28.0263Z" fill="white"/>
</svg>
