<svg width="35" height="35" viewBox="0 0 35 35" fill="none" xmlns="http://www.w3.org/2000/svg">
<path d="M12.55 5H8.7C8.11652 5 7.55695 5.23413 7.14437 5.65087C6.73179 6.06762 6.5 6.63285 6.5 7.22222V13.8889C6.5 14.1807 6.5569 14.4697 6.66747 14.7393C6.77803 15.0089 6.94008 15.2539 7.14437 15.4602C7.34865 15.6666 7.59118 15.8303 7.8581 15.942C8.12501 16.0536 8.41109 16.1111 8.7 16.1111H12.55C12.8389 16.1111 13.125 16.0536 13.3919 15.942C13.6588 15.8303 13.9013 15.6666 14.1056 15.4602C14.3099 15.2539 14.472 15.0089 14.5825 14.7393C14.6931 14.4697 14.75 14.1807 14.75 13.8889V7.22222C14.75 6.63285 14.5182 6.06762 14.1056 5.65087C13.6931 5.23413 13.1335 5 12.55 5ZM12.55 21.6667H8.7C8.11652 21.6667 7.55695 21.9008 7.14437 22.3175C6.73179 22.7343 6.5 23.2995 6.5 23.8889V27.7778C6.5 28.3671 6.73179 28.9324 7.14437 29.3491C7.55695 29.7659 8.11652 30 8.7 30H12.55C13.1335 30 13.6931 29.7659 14.1056 29.3491C14.5182 28.9324 14.75 28.3671 14.75 27.7778V23.8889C14.75 23.2995 14.5182 22.7343 14.1056 22.3175C13.6931 21.9008 13.1335 21.6667 12.55 21.6667ZM26.3 5H22.45C21.8665 5 21.3069 5.23413 20.8944 5.65087C20.4818 6.06762 20.25 6.63285 20.25 7.22222V11.1111C20.25 11.7005 20.4818 12.2657 20.8944 12.6825C21.3069 13.0992 21.8665 13.3333 22.45 13.3333H26.3C26.8835 13.3333 27.4431 13.0992 27.8556 12.6825C28.2682 12.2657 28.5 11.7005 28.5 11.1111V7.22222C28.5 6.63285 28.2682 6.06762 27.8556 5.65087C27.4431 5.23413 26.8835 5 26.3 5ZM26.3 18.8889H22.45C21.8665 18.8889 21.3069 19.123 20.8944 19.5398C20.4818 19.9565 20.25 20.5217 20.25 21.1111V27.7778C20.25 28.3671 20.4818 28.9324 20.8944 29.3491C21.3069 29.7659 21.8665 30 22.45 30H26.3C26.8835 30 27.4431 29.7659 27.8556 29.3491C28.2682 28.9324 28.5 28.3671 28.5 27.7778V21.1111C28.5 20.5217 28.2682 19.9565 27.8556 19.5398C27.4431 19.123 26.8835 18.8889 26.3 18.8889Z" stroke="#12AA9F" stroke-width="1.5" stroke-miterlimit="10" stroke-linejoin="round"/>
</svg>
