<svg width="35" height="35" viewBox="0 0 35 35" fill="none" xmlns="http://www.w3.org/2000/svg">
<path d="M9.32227 20.5H12.9004C13.6523 20.5001 14.371 20.7927 14.8994 21.3096C15.4275 21.8262 15.7227 22.5243 15.7227 23.25V26.75C15.7227 27.4757 15.4275 28.1738 14.8994 28.6904C14.371 29.2073 13.6523 29.4999 12.9004 29.5H9.32227C8.57026 29.5 7.85073 29.2074 7.32227 28.6904C6.79439 28.1738 6.5 27.4756 6.5 26.75V23.25C6.5 22.5244 6.79439 21.8262 7.32227 21.3096C7.85073 20.7926 8.57026 20.5 9.32227 20.5ZM22.0996 18H25.6777C26.0499 18 26.4185 18.0719 26.7617 18.2109C27.1048 18.35 27.4162 18.5538 27.6777 18.8096C27.9391 19.0654 28.1462 19.3685 28.2871 19.7012C28.428 20.034 28.5 20.3904 28.5 20.75V26.75C28.5 27.1096 28.428 27.466 28.2871 27.7988C28.1462 28.1315 27.9391 28.4346 27.6777 28.6904C27.4162 28.9462 27.1048 29.15 26.7617 29.2891C26.4185 29.4281 26.0499 29.5 25.6777 29.5H22.0996C21.3477 29.4999 20.629 29.2073 20.1006 28.6904C19.5725 28.1738 19.2773 27.4757 19.2773 26.75V20.75C19.2773 20.0243 19.5725 19.3262 20.1006 18.8096C20.629 18.2927 21.3477 18.0001 22.0996 18ZM9.32227 5.5H12.9004C13.6523 5.5001 14.371 5.79268 14.8994 6.30957C15.4275 6.82618 15.7227 7.52428 15.7227 8.25V14.25C15.7227 14.9757 15.4275 15.6738 14.8994 16.1904C14.371 16.7073 13.6523 16.9999 12.9004 17H9.32227C8.57026 17 7.85073 16.7074 7.32227 16.1904C7.06087 15.9346 6.85377 15.6315 6.71289 15.2988C6.57199 14.966 6.5 14.6096 6.5 14.25V8.25C6.5 7.5244 6.79439 6.82615 7.32227 6.30957C7.85073 5.79259 8.57026 5.5 9.32227 5.5ZM22.0996 5.5H25.6777C26.0499 5.5 26.4185 5.57186 26.7617 5.71094C27.1048 5.85 27.4162 6.05376 27.6777 6.30957C27.9391 6.56537 28.1462 6.86845 28.2871 7.20117C28.428 7.53398 28.5 7.89045 28.5 8.25V11.75C28.5 12.1096 28.428 12.466 28.2871 12.7988C28.1462 13.1315 27.9391 13.4346 27.6777 13.6904C27.4162 13.9462 27.1048 14.15 26.7617 14.2891C26.4185 14.4281 26.0499 14.5 25.6777 14.5H22.0996C21.3477 14.4999 20.629 14.2073 20.1006 13.6904C19.5725 13.1738 19.2773 12.4757 19.2773 11.75V8.25C19.2773 7.52428 19.5725 6.82618 20.1006 6.30957C20.629 5.79268 21.3477 5.5001 22.0996 5.5Z" fill="white" stroke="white"/>
</svg>
