<svg width="35" height="35" viewBox="0 0 35 35" fill="none" xmlns="http://www.w3.org/2000/svg">
<path d="M30 9.24313C30 9.6078 29.8537 9.95753 29.5932 10.2154C29.3327 10.4733 28.9795 10.6181 28.6111 10.6181H14.7222C14.3539 10.6181 14.0006 10.4733 13.7401 10.2154C13.4797 9.95753 13.3333 9.6078 13.3333 9.24313C13.3333 8.87845 13.4797 8.52872 13.7401 8.27085C14.0006 8.01299 14.3539 7.86812 14.7222 7.86812H28.6111C28.9795 7.86812 29.3327 8.01299 29.5932 8.27085C29.8537 8.52872 30 8.87845 30 9.24313ZM30 17.4931C30 17.8578 29.8537 18.2075 29.5932 18.4654C29.3327 18.7233 28.9795 18.8681 28.6111 18.8681H14.7222C14.3539 18.8681 14.0006 18.7233 13.7401 18.4654C13.4797 18.2075 13.3333 17.8578 13.3333 17.4931C13.3333 17.1285 13.4797 16.7787 13.7401 16.5209C14.0006 16.263 14.3539 16.1181 14.7222 16.1181H28.6111C28.9795 16.1181 29.3327 16.263 29.5932 16.5209C29.8537 16.7787 30 17.1285 30 17.4931ZM30 25.7431C30 26.1078 29.8537 26.4575 29.5932 26.7154C29.3327 26.9733 28.9795 27.1181 28.6111 27.1181H14.7222C14.3539 27.1181 14.0006 26.9733 13.7401 26.7154C13.4797 26.4575 13.3333 26.1078 13.3333 25.7431C13.3333 25.3785 13.4797 25.0287 13.7401 24.7709C14.0006 24.513 14.3539 24.3681 14.7222 24.3681H28.6111C28.9795 24.3681 29.3327 24.513 29.5932 24.7709C29.8537 25.0287 30 25.3785 30 25.7431ZM10.5556 9.23625V9.26375C10.5556 10.7749 9.3125 12 7.77778 12C6.24306 12 5 10.7749 5 9.26375V9.23625C5 7.72512 6.24306 6.5 7.77778 6.5C9.3125 6.5 10.5556 7.72512 10.5556 9.23625ZM10.5556 17.4863V17.5138C10.5556 19.0249 9.3125 20.25 7.77778 20.25C6.24306 20.25 5 19.0249 5 17.5138V17.4863C5 15.9751 6.24306 14.75 7.77778 14.75C9.3125 14.75 10.5556 15.9751 10.5556 17.4863ZM10.5556 25.7363V25.7638C10.5556 27.2749 9.3125 28.5 7.77778 28.5C6.24306 28.5 5 27.2749 5 25.7638V25.7363C5 24.2251 6.24306 23 7.77778 23C9.3125 23 10.5556 24.2251 10.5556 25.7363Z" fill="white"/>
</svg>
