<svg width="35" height="35" viewBox="0 0 35 35" fill="none" xmlns="http://www.w3.org/2000/svg">
<path d="M14.7222 8.85714H30V10.4286H14.7222V8.85714ZM5 9.64286C5 10.2645 5.21722 10.8721 5.62419 11.3889C6.03115 11.9058 6.60959 12.3086 7.28636 12.5465C7.96312 12.7844 8.70781 12.8466 9.42626 12.7253C10.1447 12.6041 10.8046 12.3047 11.3226 11.8652C11.8406 11.4257 12.1933 10.8657 12.3362 10.256C12.4792 9.64634 12.4058 9.01442 12.1255 8.44014C11.8452 7.86586 11.3704 7.37501 10.7614 7.02967C10.1523 6.68433 9.43623 6.5 8.7037 6.5C7.72175 6.50091 6.78032 6.83232 6.08597 7.42153C5.39163 8.01073 5.00107 8.8096 5 9.64286ZM8.7037 8.07143C9.06997 8.07143 9.428 8.16359 9.73254 8.33626C10.0371 8.50893 10.2744 8.75436 10.4146 9.0415C10.5548 9.32864 10.5914 9.6446 10.52 9.94943C10.4485 10.2543 10.2721 10.5343 10.0132 10.754C9.75417 10.9738 9.42421 11.1235 9.06498 11.1841C8.70576 11.2447 8.33341 11.2136 7.99503 11.0947C7.65665 10.9757 7.36743 10.7743 7.16395 10.5159C6.96046 10.2575 6.85185 9.95366 6.85185 9.64286C6.8524 9.22623 7.04769 8.8268 7.39486 8.53221C7.74203 8.23761 8.21273 8.0719 8.7037 8.07143ZM14.7222 16.7143H30V18.2857H14.7222V16.7143ZM8.7037 20.6429C9.43623 20.6429 10.1523 20.4585 10.7614 20.1132C11.3704 19.7678 11.8452 19.277 12.1255 18.7027C12.4058 18.1284 12.4792 17.4965 12.3362 16.8869C12.1933 16.2772 11.8406 15.7172 11.3226 15.2777C10.8046 14.8381 10.1447 14.5388 9.42626 14.4175C8.70781 14.2963 7.96312 14.3585 7.28636 14.5964C6.60959 14.8343 6.03115 15.2371 5.62419 15.7539C5.21722 16.2708 5 16.8784 5 17.5C5.00107 18.3333 5.39163 19.1321 6.08597 19.7213C6.78032 20.3105 7.72175 20.6419 8.7037 20.6429ZM8.7037 15.9286C9.06997 15.9286 9.428 16.0207 9.73254 16.1934C10.0371 16.3661 10.2744 16.6115 10.4146 16.8986C10.5548 17.1858 10.5914 17.5017 10.52 17.8066C10.4485 18.1114 10.2721 18.3914 10.0132 18.6112C9.75417 18.8309 9.42421 18.9806 9.06498 19.0412C8.70576 19.1019 8.33341 19.0707 7.99503 18.9518C7.65665 18.8329 7.36743 18.6315 7.16395 18.373C6.96046 18.1146 6.85185 17.8108 6.85185 17.5C6.8524 17.0834 7.04769 16.6839 7.39486 16.3893C7.74203 16.0947 8.21273 15.929 8.7037 15.9286ZM14.7222 24.5714H30V26.1429H14.7222V24.5714ZM8.7037 28.5C9.43623 28.5 10.1523 28.3157 10.7614 27.9703C11.3704 27.625 11.8452 27.1341 12.1255 26.5599C12.4058 25.9856 12.4792 25.3537 12.3362 24.744C12.1933 24.1343 11.8406 23.5743 11.3226 23.1348C10.8046 22.6953 10.1447 22.3959 9.42626 22.2747C8.70781 22.1534 7.96312 22.2156 7.28636 22.4535C6.60959 22.6914 6.03115 23.0942 5.62419 23.6111C5.21722 24.1279 5 24.7355 5 25.3571C5.00107 26.1904 5.39163 26.9893 6.08597 27.5785C6.78032 28.1677 7.72175 28.4991 8.7037 28.5ZM8.7037 23.7857C9.06997 23.7857 9.428 23.8779 9.73254 24.0505C10.0371 24.2232 10.2744 24.4686 10.4146 24.7558C10.5548 25.0429 10.5914 25.3589 10.52 25.6637C10.4485 25.9685 10.2721 26.2485 10.0132 26.4683C9.75417 26.6881 9.42421 26.8377 9.06498 26.8984C8.70576 26.959 8.33341 26.9279 7.99503 26.809C7.65665 26.69 7.36743 26.4886 7.16395 26.2302C6.96046 25.9718 6.85185 25.6679 6.85185 25.3571C6.8524 24.9405 7.04769 24.5411 7.39486 24.2465C7.74203 23.9519 8.21273 23.7862 8.7037 23.7857Z" fill="#12AA9F"/>
</svg>
