<svg width="35" height="35" viewBox="0 0 35 35" fill="none" xmlns="http://www.w3.org/2000/svg">
<path d="M17.5 20.2778C16.7361 20.2778 16.0824 20.006 15.5389 19.4625C14.9954 18.919 14.7231 18.2648 14.7222 17.5C14.7213 16.7352 14.9935 16.0815 15.5389 15.5389C16.0843 14.9963 16.738 14.7241 17.5 14.7222C18.262 14.7204 18.9162 14.9926 19.4625 15.5389C20.0088 16.0852 20.2806 16.7389 20.2778 17.5C20.275 18.2611 20.0032 18.9153 19.4625 19.4625C18.9218 20.0097 18.2676 20.2815 17.5 20.2778ZM17.5 30C14.2824 30 11.4931 28.9412 9.13194 26.8236C6.77083 24.706 5.41667 22.0611 5.06944 18.8889H7.91667C8.24074 21.2963 9.31157 23.287 11.1292 24.8611C12.9468 26.4352 15.0704 27.2222 17.5 27.2222C20.2083 27.2222 22.506 26.2792 24.3931 24.393C26.2801 22.5069 27.2231 20.2093 27.2222 17.5C27.2213 14.7907 26.2782 12.4935 24.3931 10.6083C22.5079 8.72315 20.2102 7.77963 17.5 7.77778C15.9028 7.77778 14.4097 8.14815 13.0208 8.88889C11.6319 9.62963 10.463 10.6481 9.51389 11.9444H13.3333V14.7222H5V6.38889H7.77778V9.65278C8.95833 8.1713 10.3995 7.02546 12.1014 6.21528C13.8032 5.40509 15.6028 5 17.5 5C19.2361 5 20.8625 5.33009 22.3792 5.99028C23.8958 6.65046 25.2153 7.5412 26.3375 8.6625C27.4597 9.78379 28.3509 11.1032 29.0111 12.6208C29.6713 14.1384 30.0009 15.7648 30 17.5C29.9991 19.2352 29.6694 20.8616 29.0111 22.3792C28.3528 23.8968 27.4616 25.2162 26.3375 26.3375C25.2134 27.4588 23.894 28.35 22.3792 29.0111C20.8643 29.6722 19.238 30.0018 17.5 30Z" fill="white"/>
</svg>
